<svg xmlns="http://www.w3.org/2000/svg" xmlns:xlink="http://www.w3.org/1999/xlink" xml:space="preserve" id="Calque_1" width="200" height="53" x="0" y="0" version="1.1" viewBox="0 0 695.68 192.89">
  <style id="style2" type="text/css">
    .st0{fill:#2c52a0}
  </style>
  <g id="g20" transform="translate(-78.31 -256.91)">
    <g id="g18">
      <path id="path4" d="M433.04 418.87h-39.01v-120.3h39.01V313h-23.2v38.32h20.97v14.44h-20.97v38.67h23.2z" class="st0"/>
      <path id="path6" d="M442.14 348.23c0-6.76 2.15-12.14 6.45-16.16 4.3-4.01 9.77-6.01 16.41-6.01 6.64 0 12.14 2.01 16.5 6.01 4.35 4.01 6.53 9.4 6.53 16.16v70.63h-15.81v-70.63c0-2.29-.66-4.15-1.98-5.59-1.32-1.43-3.07-2.15-5.24-2.15-2.18 0-3.9.69-5.16 2.06-1.26 1.38-1.89 3.27-1.89 5.67v70.63h-15.81z" class="st0"/>
      <path id="path8" d="M499.2 348.23c0-6.76 2.18-12.14 6.53-16.16 4.35-4.01 9.85-6.01 16.5-6.01 6.64 0 12.12 2.01 16.41 6.01 4.3 4.01 6.44 9.4 6.44 16.16v9.97h-15.81v-9.97c0-2.29-.63-4.15-1.89-5.59-1.26-1.43-2.98-2.15-5.16-2.15s-3.93.72-5.24 2.15c-1.32 1.43-1.98 3.29-1.98 5.59v6.7c0 2.64 1.57 5.16 4.73 7.56 3.15 2.41 6.59 4.55 10.31 6.44 3.72 1.89 7.16 4.79 10.31 8.68 3.15 3.9 4.73 8.42 4.73 13.58v7.05c0 6.76-2.18 12.15-6.53 16.15-4.36 4.01-9.85 6.02-16.5 6.02s-12.12-2-16.41-6.02c-4.3-4.01-6.45-9.39-6.45-16.15v-9.97H515v9.97c0 2.41.63 4.3 1.89 5.67 1.26 1.37 2.98 2.06 5.16 2.06 2.17 0 3.92-.71 5.24-2.15 1.32-1.43 1.98-3.29 1.98-5.59v-7.05c0-2.29-1.03-4.44-3.09-6.44-2.06-2-4.55-3.84-7.48-5.5-2.92-1.66-5.87-3.49-8.85-5.5-2.98-2-5.5-4.61-7.56-7.82-2.06-3.21-3.09-6.88-3.09-11z" class="st0"/>
      <path id="path10" d="M572.07 449.8h-15.81V348.23c0-6.76 2.17-12.14 6.53-16.16 4.35-4.01 9.85-6.01 16.5-6.01 6.64 0 12.12 2.01 16.41 6.01 4.3 4.01 6.44 9.4 6.44 16.16v50.18c0 6.76-1.83 12.15-5.5 16.15-3.67 4.01-8.14 6.02-13.41 6.02-5.39 0-9.11-2-11.17-6.02v35.24zm12.37-107.15c-1.26-1.43-2.98-2.15-5.16-2.15s-3.93.72-5.24 2.15c-1.32 1.43-1.98 3.29-1.98 5.59v50.18c0 2.29.66 4.15 1.98 5.59 1.32 1.43 3.06 2.15 5.24 2.15 2.17 0 3.89-.71 5.16-2.15 1.26-1.43 1.89-3.29 1.89-5.59v-50.18c0-2.3-.63-4.16-1.89-5.59z" class="st0"/>
      <path id="path12" d="M615.89 312.06c-1.72-1.66-2.58-3.87-2.58-6.62s.86-4.95 2.58-6.62c1.72-1.66 3.95-2.49 6.7-2.49s4.98.83 6.7 2.49c1.72 1.66 2.58 3.87 2.58 6.62s-.86 4.96-2.58 6.62c-1.72 1.66-3.95 2.49-6.7 2.49s-4.98-.83-6.7-2.49zm-1.21 15.72h15.81v91.08h-15.81z" class="st0"/>
      <path id="path14" d="M642.7 418.87v-70.98c0-6.76 1.98-12.09 5.93-15.98 3.95-3.89 9.19-5.84 15.72-5.84 3.32 0 6.44.77 9.37 2.32 2.93 1.55 5.01 3.52 6.27 5.93 1.14-2.52 3.09-4.52 5.84-6.01 2.75-1.49 5.78-2.23 9.11-2.23 6.53 0 11.83 1.95 15.9 5.84 4.07 3.9 6.1 9.22 6.1 15.98v70.98h-15.81V347.9c0-2.29-.6-4.1-1.8-5.41-1.2-1.32-2.84-1.98-4.9-1.98-2.06 0-3.7.66-4.9 1.98-1.2 1.32-1.8 3.12-1.8 5.41v70.98h-15.81V347.9c0-2.29-.63-4.1-1.89-5.41-1.26-1.32-2.98-1.98-5.16-1.98-4.24 0-6.36 2.47-6.36 7.39v70.98H642.7Z" class="st0"/>
      <path id="path16" d="M743.92 358.2h-15.81v-9.97c0-6.76 2.18-12.14 6.53-16.16 4.35-4.01 9.85-6.01 16.5-6.01 6.64 0 12.12 2.01 16.41 6.01 4.3 4.01 6.44 9.4 6.44 16.16v50.18c0 6.76-2.15 12.15-6.44 16.15-4.3 4.01-9.77 6.02-16.41 6.02-6.76 0-12.29-1.98-16.58-5.93-4.3-3.95-6.45-9.37-6.45-16.24v-8.42c0-9.74 4.64-16.44 13.92-20.11l16.15-6.7v-14.95c0-2.29-.63-4.15-1.89-5.59-1.26-1.43-2.98-2.15-5.16-2.15s-3.93.72-5.24 2.15c-1.32 1.43-1.98 3.29-1.98 5.59v9.97zm0 40.22c0 2.29.66 4.15 1.98 5.59 1.32 1.43 3.06 2.15 5.24 2.15 2.17 0 3.89-.71 5.16-2.15 1.26-1.43 1.89-3.29 1.89-5.59v-20.28l-9.11 3.95c-3.44 1.38-5.16 4.01-5.16 7.91z" class="st0"/>
    </g>
  </g>
  <g id="g54" transform="translate(-78.31 -256.91)">
    <defs id="defs23">
      <path id="SVGID_1_" d="M78.31 256.91h272.67v161.97H78.31z"/>
    </defs>
    <clipPath id="SVGID_00000111891142749715875840000003567330777675147156_">
      <use xlink:href="#SVGID_1_" id="use25" width="100%" height="100%" x="0" y="0" overflow="visible"/>
    </clipPath>
    <path id="path28" fill="#2b2f47" d="M139.81 269.65c1.44-1.21 2.24-2.93 2.24-4.93 0-4.38-3.34-7.21-8.51-7.21h-10.47v26.12h9.77c6.3 0 10.2-3.12 10.2-8.14.01-2.57-1.2-4.65-3.23-5.84m-9.96 3.61h2.63c3.79 0 3.79 1.13 3.79 2.03 0 .67 0 2.23-3.96 2.23h-2.46zm2.43-6.18h-2.43v-3.53h2.06c3.36 0 3.36.94 3.36 1.63 0 .47 0 1.9-2.99 1.9" clip-path="url(#SVGID_00000111891142749715875840000003567330777675147156_)"/>
    <path id="path30" fill="#2b2f47" d="M163 256.91c-8.18 0-13.89 5.59-13.89 13.59 0 7.95 5.84 13.73 13.89 13.73 8.11 0 13.99-5.77 13.99-13.73 0-8-5.75-13.59-13.99-13.59m.03 20.98c-3.99 0-6.78-3.04-6.78-7.38 0-4.31 2.79-7.32 6.78-7.32 4.01 0 6.82 3.01 6.82 7.32 0 4.34-2.8 7.38-6.82 7.38" clip-path="url(#SVGID_00000111891142749715875840000003567330777675147156_)"/>
    <path id="path32" fill="#2b2f47" d="M203.56 265.55c0-4.96-3.82-8.04-9.97-8.04h-9.47v26.12h6.78v-9.97h1l5.45 9.97h8.11l-6.61-10.99c2.97-1.23 4.71-3.79 4.71-7.09m-12.66-1.93h2.5c2.25 0 3.39.64 3.39 1.9 0 .64 0 2.13-3.76 2.13h-2.13z" clip-path="url(#SVGID_00000111891142749715875840000003567330777675147156_)"/>
    <path id="path34" fill="#2b2f47" d="M220.32 257.51h-9.64v26.12h9.64c6.88 0 14.29-4.09 14.29-13.06 0-9.63-7.38-13.06-14.29-13.06m-2.86 6.18h2.2c7.06 0 7.88 3.93 7.88 6.88 0 5.63-4.29 6.82-7.88 6.82h-2.2z" clip-path="url(#SVGID_00000111891142749715875840000003567330777675147156_)"/>
    <path id="polygon36" fill="#2b2f47" d="M259.32 267.15h-10.81v-3.4h11.41v-6.24h-18.18v26.12h18.77v-6.31h-12v-4.06h10.81z" clip-path="url(#SVGID_00000111891142749715875840000003567330777675147156_)"/>
    <path id="path38" fill="#2b2f47" d="m275.5 257.51-11.36 26.12h7.54l2.13-5.38h8.46l2.19 5.38h7.62l-11.26-26.12zm4.29 14.56h-3.56l1.79-4.65z" clip-path="url(#SVGID_00000111891142749715875840000003567330777675147156_)"/>
    <path id="path40" fill="#2b2f47" d="M310.89 273.53c0 1.99-.69 4.36-3.99 4.36-3.3 0-3.99-2.37-3.99-4.36v-16.02h-6.78v16.19c0 6.2 4.43 10.54 10.77 10.54s10.77-4.33 10.77-10.54v-16.19h-6.77v16.02z" clip-path="url(#SVGID_00000111891142749715875840000003567330777675147156_)"/>
    <path id="polygon42" fill="#2b2f47" d="m339.35 257.51-4.06 6.82-4.12-6.82h-8.2l8.19 12.27-8.98 13.85h8.17l4.8-8.05 5.01 8.05h8.44l-9.33-13.77 8.01-12.35z" clip-path="url(#SVGID_00000111891142749715875840000003567330777675147156_)"/>
    <path id="path44" fill="#2b2f47" d="M305.74 298.3h-30.61c-10.21 0-18.48 8.28-18.48 18.48v102.1h23.54v-98.7h25.92c15.63 0 20.96 8.09 20.96 18.94 0 11.03-5.33 19.12-20.96 19.12h-16.35v21.7h15.99c31.26 0 45.23-17.29 45.23-40.82-.01-23.54-13.98-40.82-45.24-40.82" clip-path="url(#SVGID_00000111891142749715875840000003567330777675147156_)"/>
    <path id="rect46" fill="#2b2f47" d="M78.31 298h21.88v120.88H78.31z" clip-path="url(#SVGID_00000111891142749715875840000003567330777675147156_)"/>
    <path id="path48" fill="#2c52a0" d="M78.34 284.01h21.88v-26.42c-12.08 0-21.88 9.79-21.88 21.88z" clip-path="url(#SVGID_00000111891142749715875840000003567330777675147156_)"/>
    <path id="path50" fill="#2b2f47" d="m202.94 342.26-58.2-42.03v.02c-2.3-1.42-5-2.25-7.9-2.25-8.33 0-15.08 6.75-15.08 15.08v105.8h22v-91.13l59.19 42.8v-28.29z" clip-path="url(#SVGID_00000111891142749715875840000003567330777675147156_)"/>
    <path id="path52" fill="#2c52a0" d="m152.62 374.61 58.2 42.03v-.02c2.3 1.42 5 2.25 7.9 2.25 8.33 0 15.08-6.75 15.08-15.08v-105.8h-22v91.13l-59.19-42.8v28.29z" clip-path="url(#SVGID_00000111891142749715875840000003567330777675147156_)"/>
  </g>
</svg>
